<svg xmlns="http://www.w3.org/2000/svg" width="171.052" height="171.052" viewBox="0 0 171.052 171.052"><g transform="translate(-620.974 -1684.975)"><path d="M-7525.5-724a70.056,70.056,0,0,1-27.441-5.54,70.268,70.268,0,0,1-22.409-15.109,70.267,70.267,0,0,1-15.109-22.409A70.06,70.06,0,0,1-7596-794.5a70.063,70.063,0,0,1,5.541-27.442,70.265,70.265,0,0,1,15.109-22.409,70.267,70.267,0,0,1,22.409-15.109A70.059,70.059,0,0,1-7525.5-865a70.059,70.059,0,0,1,27.441,5.54,70.267,70.267,0,0,1,22.409,15.109,70.265,70.265,0,0,1,15.109,22.409A70.063,70.063,0,0,1-7455-794.5a70.06,70.06,0,0,1-5.541,27.441,70.267,70.267,0,0,1-15.109,22.409,70.268,70.268,0,0,1-22.409,15.109A70.056,70.056,0,0,1-7525.5-724Zm27.909-59.667h0c.391,6.71,6.8,11.581,15.231,11.581,8.208,0,13.724-4.224,13.724-10.512a8.687,8.687,0,0,0-4.166-7.6c-2.381-1.55-5.469-2.352-8.193-3.061-3.874-1.007-7.218-1.877-7.218-4.509a2.842,2.842,0,0,1,1.259-2.424,6.461,6.461,0,0,1,3.713-.912c3.352,0,5.595,1.736,5.854,4.531h8.434c-.516-7.1-5.894-11.518-14.036-11.518-8.117,0-13.785,4.3-13.785,10.449a8.448,8.448,0,0,0,4.117,7.618c2.41,1.547,5.555,2.338,8.33,3.036,3.893.98,7.255,1.826,7.255,4.388a3.052,3.052,0,0,1-1.376,2.549,6.851,6.851,0,0,1-3.973,1.038,7.094,7.094,0,0,1-4.351-1.337,4.9,4.9,0,0,1-1.944-3.32Zm-15.611-23.856v34.871h8.813v-34.871Zm-24.925,6.987c4.848,0,7.742,3.223,7.742,8.622v19.262h8.813v-20.457c0-9.2-5.21-14.917-13.6-14.917A13.358,13.358,0,0,0-7546-803.179v-16.051h-8.813v46.58H-7546v-19.262a9.155,9.155,0,0,1,2.141-6.411A7.611,7.611,0,0,1-7538.127-800.535Zm-39.717.252v16.806c0,3.8,1.032,6.629,3.068,8.411,1.832,1.6,4.548,2.416,8.073,2.416h5.538v-7.427h-4.091a4.11,4.11,0,0,1-2.9-.8,3.277,3.277,0,0,1-.818-2.541v-16.869h7.8v-7.238h-7.8v-8.624h-8.874v8.624H-7582v7.238ZM-7508.732-822a5.176,5.176,0,0,0-5.414,5.162,5.175,5.175,0,0,0,5.414,5.161,5.175,5.175,0,0,0,5.412-5.161A5.175,5.175,0,0,0-7508.732-822Z" transform="translate(8232 2565)" fill="#fff" opacity="0.5"/><path d="M-7510.48-693.973a85.614,85.614,0,0,1-22.147-2.938,84.967,84.967,0,0,1-30.408-15.106,85.371,85.371,0,0,1-11.988-11.372,86.007,86.007,0,0,1-9.52-13.361,85.775,85.775,0,0,1-6.81-14.924,85.435,85.435,0,0,1-3.855-16.068,84.972,84.972,0,0,1,2.122-33.887,84.982,84.982,0,0,1,15.105-30.407,85.444,85.444,0,0,1,11.373-11.986,86.041,86.041,0,0,1,13.361-9.521,85.818,85.818,0,0,1,14.923-6.808,85.369,85.369,0,0,1,16.07-3.855,85.4,85.4,0,0,1,11.738-.816,85.584,85.584,0,0,1,22.145,2.938,84.961,84.961,0,0,1,30.409,15.106,85.35,85.35,0,0,1,11.989,11.373,85.953,85.953,0,0,1,9.519,13.359,85.97,85.97,0,0,1,6.81,14.924,85.447,85.447,0,0,1,3.857,16.068,85,85,0,0,1-2.124,33.885,84.975,84.975,0,0,1-15.1,30.409,85.352,85.352,0,0,1-11.374,11.986,85.888,85.888,0,0,1-13.361,9.521,85.845,85.845,0,0,1-14.922,6.81,85.507,85.507,0,0,1-16.07,3.855A85.394,85.394,0,0,1-7510.48-693.973Zm-57.92-125.75h0a70.039,70.039,0,0,0-10.194,21.977,70.021,70.021,0,0,0,7.07,53.481,70.019,70.019,0,0,0,42.778,32.865,70.494,70.494,0,0,0,18.231,2.41,70.28,70.28,0,0,0,40.218-12.631l-36.274-36.273v-20.212c0-9.2-5.209-14.919-13.6-14.919a13.369,13.369,0,0,0-10.827,4.846v-16.049h-8.812v13.1l-28.594-28.594Zm85.812,51.057h0c.331,5.69,5.125,10.242,11.929,11.327l18.065,18.065a70.163,70.163,0,0,0,10.194-21.979,70.02,70.02,0,0,0-7.073-53.479,70.022,70.022,0,0,0-42.779-32.864,70.476,70.476,0,0,0-18.23-2.41,70.271,70.271,0,0,0-40.215,12.631l52.5,52.5v27.228h8.814v-18.415l7.4,7.4Zm-32.794,1.959v0l-14.729-14.728a6.7,6.7,0,0,1,2.731-3.056,8.349,8.349,0,0,1,4.256-1.042c4.848,0,7.743,3.224,7.743,8.623v10.2Z" transform="translate(8216.998 2550)" fill="#fff"/></g></svg>