<!--desing by UpperCod-->
<svg xmlns="http://www.w3.org/2000/svg" width="25.999" height="25.999" viewBox="0 0 25.999 25.999">
  <g id="icon-plus" transform="translate(7548 55.999)" fill="none">
    <path d="M-7544.192-33.809A12.913,12.913,0,0,1-7548-43a12.917,12.917,0,0,1,3.808-9.193A12.915,12.915,0,0,1-7535-56a12.911,12.911,0,0,1,9.191,3.806A12.917,12.917,0,0,1-7522-43a12.913,12.913,0,0,1-3.808,9.191A12.907,12.907,0,0,1-7535-30,12.914,12.914,0,0,1-7544.192-33.809ZM-7546-43a11.013,11.013,0,0,0,11,11,11.013,11.013,0,0,0,11-11,11.013,11.013,0,0,0-11-11A11.013,11.013,0,0,0-7546-43Zm10,5v-4h-4a1,1,0,0,1-1-1,1,1,0,0,1,1-1h4v-4a1,1,0,0,1,1-1,1,1,0,0,1,1,1v4h4a1,1,0,0,1,1,1,1,1,0,0,1-1,1h-4v4a1,1,0,0,1-1,1A1,1,0,0,1-7536-38Z" stroke="none"/>
    <path d="M -7534.99951171875 -30.00000190734863 C -7538.4716796875 -30.00000190734863 -7541.73583984375 -31.35253143310547 -7544.1923828125 -33.80943298339844 C -7546.6474609375 -36.26444244384766 -7548 -39.52832412719727 -7548 -43.00057220458984 C -7548 -46.47282409667969 -7546.6474609375 -49.73859405517578 -7544.1923828125 -52.193603515625 C -7541.73779296875 -54.64861297607422 -7538.4716796875 -55.99924087524414 -7534.99951171875 -55.99924087524414 C -7531.52734375 -55.99924087524414 -7528.263671875 -54.64861297607422 -7525.80859375 -52.193603515625 C -7523.353515625 -49.73859405517578 -7522.0009765625 -46.47282409667969 -7522.0009765625 -43.00057220458984 C -7522.0009765625 -39.52832412719727 -7523.353515625 -36.26444244384766 -7525.80859375 -33.80943298339844 C -7528.263671875 -31.35253143310547 -7531.52734375 -30.00000190734863 -7534.99951171875 -30.00000190734863 Z M -7534.99951171875 -54.00076293945313 C -7541.06494140625 -54.00076293945313 -7546 -49.06611251831055 -7546 -43.00057220458984 C -7546 -36.93503189086914 -7541.06494140625 -32.00038146972656 -7534.99951171875 -32.00038146972656 C -7528.93408203125 -32.00038146972656 -7523.99951171875 -36.93503189086914 -7523.99951171875 -43.00057220458984 C -7523.99951171875 -49.06611251831055 -7528.93408203125 -54.00076293945313 -7534.99951171875 -54.00076293945313 Z M -7534.99951171875 -37.00132369995117 C -7535.552734375 -37.00132369995117 -7536 -37.44838333129883 -7536 -38.00152206420898 L -7536 -42.00038146972656 L -7540.00048828125 -42.00038146972656 C -7540.5537109375 -42.00038146972656 -7541.00048828125 -42.44933319091797 -7541.00048828125 -43.00057220458984 C -7541.00048828125 -43.55370330810547 -7540.5537109375 -44.00076293945313 -7540.00048828125 -44.00076293945313 L -7536 -44.00076293945313 L -7536 -48.00152206420898 C -7536 -48.55276107788086 -7535.552734375 -48.99981307983398 -7534.99951171875 -48.99981307983398 C -7534.4482421875 -48.99981307983398 -7533.99951171875 -48.55276107788086 -7533.99951171875 -48.00152206420898 L -7533.99951171875 -44.00076293945313 L -7530.00048828125 -44.00076293945313 C -7529.447265625 -44.00076293945313 -7529.00048828125 -43.55370330810547 -7529.00048828125 -43.00057220458984 C -7529.00048828125 -42.44933319091797 -7529.447265625 -42.00038146972656 -7530.00048828125 -42.00038146972656 L -7533.99951171875 -42.00038146972656 L -7533.99951171875 -38.00152206420898 C -7533.99951171875 -37.44838333129883 -7534.4482421875 -37.00132369995117 -7534.99951171875 -37.00132369995117 Z" stroke="none" fill="#fff"/>
  </g>
</svg>
