<!--desing by UpperCod-->
<svg xmlns="http://www.w3.org/2000/svg" xmlns:xlink="http://www.w3.org/1999/xlink" width="190" height="190" viewBox="0 0 190 190"><defs><linearGradient id="a" x1="0.5" x2="0.5" y2="1" gradientUnits="objectBoundingBox"><stop offset="0" stop-color="#fff" stop-opacity="0"/><stop offset="1" stop-color="#fff"/></linearGradient></defs><g transform="translate(-228 -1333)"><g transform="translate(85 73)"><path d="M-7571.43-794.932a50,50,0,0,1,1.691-12.45l61.258,61.258a50.009,50.009,0,0,1-12.45,1.691Zm14.866,36.08-.446-.446a49.847,49.847,0,0,1-13.928-28.069l42.442,42.442A49.847,49.847,0,0,1-7556.564-758.852Zm-11.423-53.852a49.848,49.848,0,0,1,4.84-9.3l69.291,69.29a49.88,49.88,0,0,1-9.3,4.84Zm7.842-13.372c.109-.133.217-.264.327-.4l6.344-6.344c.132-.11.265-.22.4-.329l70.358,70.358a50.322,50.322,0,0,1-7.069,7.069Zm11.14-10.071a49.833,49.833,0,0,1,9.3-4.841l64.826,64.826a49.841,49.841,0,0,1-4.841,9.3Zm14.624-6.59a50.049,50.049,0,0,1,12.451-1.691l50.5,50.5a50.052,50.052,0,0,1-1.69,12.451Zm20.017-1.2a50.027,50.027,0,0,1,42.437,42.437Z" transform="translate(7774.289 2164.289)" opacity="0.75" fill="url(#a)"/><circle cx="50" cy="50" r="50" transform="translate(173 1290)" fill="#fff"/></g><g transform="translate(238 1343)" fill="none" stroke="#fff" stroke-width="10" opacity="0.25"><rect width="170" height="170" rx="15" stroke="none"/><rect x="-5" y="-5" width="180" height="180" rx="20" fill="none"/></g></g></svg>