<svg xmlns="http://www.w3.org/2000/svg" width="155" height="57.096" viewBox="0 0 155 57.096"><g transform="translate(-815 -1919.552)"><path d="M6.552-12.384C6.552-3.24,11.664,0,19.3,0h6.336V-8.5h-4.68c-3.168,0-4.248-1.152-4.248-3.816v-19.3h8.928v-8.28H16.7v-9.864H6.552v9.864H1.8v8.28H6.552ZM32.9,0h10.08V-22.032c0-6.408,3.528-9.864,9-9.864,5.328,0,8.856,3.456,8.856,9.864V0H70.92V-23.4c0-11.016-6.552-17.064-15.552-17.064-5.328,0-9.792,2.16-12.384,5.544V-53.28H32.9ZM80.5,0h10.08V-39.888H80.5Zm5.112-44.64a5.954,5.954,0,0,0,6.192-5.9,5.954,5.954,0,0,0-6.192-5.9,5.911,5.911,0,0,0-6.192,5.9A5.911,5.911,0,0,0,85.608-44.64Zm45.864,33.264c-.288-14.616-22.392-10.08-22.392-17.352,0-2.3,1.944-3.816,5.688-3.816,3.96,0,6.408,2.088,6.7,5.184h9.648c-.576-7.92-6.408-13.176-16.056-13.176-9.864,0-15.768,5.328-15.768,11.952,0,14.616,22.536,10.08,22.536,17.208,0,2.3-2.16,4.1-6.12,4.1-4.032,0-6.84-2.3-7.2-5.328H98.352C98.784-5.184,105.768.648,115.776.648,125.5.648,131.472-4.536,131.472-11.376Z" transform="translate(825 1976)" fill="#fff"/><g transform="translate(0 1)"><rect width="155" height="7" transform="translate(815 1952)" fill="#ff4141"/><rect width="155" height="4" transform="translate(815 1948)" fill="#120042"/><rect width="155" height="4" transform="translate(815 1959)" fill="#120042"/></g></g></svg>