<svg xmlns="http://www.w3.org/2000/svg" width="177.591" height="178.043" viewBox="0 0 177.591 178.043"><g transform="translate(0 92.349) rotate(-45)"><path d="M25.511,27.6a27.488,27.488,0,0,1-3.725-.254L4.018,9.584c1.883.389,3.811.7,5.73.915l17.07,17.07C26.387,27.592,25.944,27.6,25.511,27.6Zm5.229-.5L14.5,10.861c.831.033,1.682.049,2.527.049.763,0,1.536-.013,2.3-.041l15.2,15.2A27.322,27.322,0,0,1,30.74,27.1ZM15.895,25.858a27.037,27.037,0,0,1-9.657-6.237A27.051,27.051,0,0,1,0,9.963L15.9,25.858Zm21.727-1.085L23.443,10.595c1.416-.141,2.843-.332,4.249-.567L40.67,23.006a27.134,27.134,0,0,1-3.047,1.77Zm5.547-3.662L31.358,9.3c1.274-.292,2.559-.628,3.815-1L45.617,18.746c-.266.293-.55.587-.836.874-.517.518-1.062,1.019-1.614,1.491Zm4.426-4.78h0L38.487,7.225c1.158-.412,2.324-.867,3.464-1.351l7.507,7.507A27.211,27.211,0,0,1,47.6,16.332Zm3.264-5.944h0L44.972,4.5c1.062-.517,2.124-1.072,3.163-1.652l3.879,3.879a27.26,27.26,0,0,1-1.151,3.659Zm1.783-7.426h0L50.9,1.216C51.515.827,52.146.42,52.764,0a27.5,27.5,0,0,1-.122,2.962Z" transform="translate(43.269 113.881)" fill="#fff"/><path d="M60.6,121.19a61.042,61.042,0,0,1-12.215-1.231,60.264,60.264,0,0,1-21.667-9.118A60.778,60.778,0,0,1,4.762,84.183,60.278,60.278,0,0,1,1.231,72.809a61.2,61.2,0,0,1,0-24.443,60.255,60.255,0,0,1,9.115-21.652A60.776,60.776,0,0,1,37.008,4.762,60.292,60.292,0,0,1,48.382,1.231a61.133,61.133,0,0,1,26.737.52,60.41,60.41,0,0,1,24.823,12.76,61.019,61.019,0,0,1,9.469,10.178,38.274,38.274,0,0,0,0,71.818,60.878,60.878,0,0,1-21.033,17.956A60.323,60.323,0,0,1,60.6,121.19Z" transform="translate(0 0)" fill="#fff"/><path d="M20.049,65.214H48.2a34.219,34.219,0,0,1-28.147,0Zm-6.527-3.889a34.35,34.35,0,0,1-4.658-4.263H59.379a34.35,34.35,0,0,1-4.658,4.263ZM5.81,53.173A34.113,34.113,0,0,1,3.363,48.91H64.878a34.07,34.07,0,0,1-2.447,4.263ZM1.778,45.021A33.837,33.837,0,0,1,.645,40.759H67.6a33.874,33.874,0,0,1-1.133,4.263ZM.109,36.869Q0,35.51,0,34.121q0-.761.033-1.514H68.208q.033.752.033,1.514,0,1.387-.109,2.748Zm.316-8.152a33.914,33.914,0,0,1,.963-4.262H66.853a33.953,33.953,0,0,1,.963,4.262ZM2.8,20.566A34.036,34.036,0,0,1,5.011,16.3h58.21a34.071,34.071,0,0,1,2.213,4.262Zm5-8.152a34.324,34.324,0,0,1,4.194-4.262H56.254a34.307,34.307,0,0,1,4.194,4.262Zm9.8-8.152a34.175,34.175,0,0,1,33.053,0Z" transform="translate(88.513 26.154)" fill="#fff"/></g></svg>