<!--desing by UpperCod-->
<svg xmlns="http://www.w3.org/2000/svg" width="190" height="190" viewBox="0 0 190 190"><g transform="translate(-582 -1333)"><g transform="translate(354)"><g transform="translate(238 1343)" fill="none" stroke="#fff" stroke-width="10" opacity="0.25"><rect width="170" height="170" rx="15" stroke="none"/><rect x="-5" y="-5" width="180" height="180" rx="20" fill="none"/></g></g><g transform="translate(-10)"><path d="M8184,2423.125s10.107,35.169,64.909,0,70.187,0,70.187,0" transform="translate(-5548.577 7358.932) rotate(-60)" fill="none" stroke="#fff" stroke-linecap="round" stroke-width="10"/><rect width="70" height="10" rx="5" transform="translate(640 1411)" fill="#fff"/></g><g transform="translate(0.264)"><path d="M8390.529,2281s-14.793,4.789-14.793,25.508a37.2,37.2,0,0,0,.693,7.282c2.774,14.266,14.1,16.978,14.1,16.978" transform="translate(-7692 -843)" fill="none" stroke="#fff" stroke-linecap="round" stroke-width="5"/><path d="M8375.736,2281s14.793,4.789,14.793,25.508a37.2,37.2,0,0,1-.693,7.282c-2.774,14.266-14.1,16.978-14.1,16.978" transform="translate(-7652 -843)" fill="none" stroke="#fff" stroke-linecap="round" stroke-width="5"/></g><g transform="translate(1.47 0.025)"><path d="M8290.529,2315.975l12.484,12.485,10.345,10.344" transform="translate(-7592 -865)" fill="none" stroke="#fff" stroke-linecap="round" stroke-width="5"/><path d="M8313.357,2315.975l-12.484,12.485-10.345,10.344" transform="translate(-7591.999 -865)" fill="none" stroke="#fff" stroke-linecap="round" stroke-width="5"/></g></g></svg>