<svg xmlns="http://www.w3.org/2000/svg" width="190" height="190" viewBox="0 0 190 190">
  <g id="icon-watch" transform="translate(-228 -1333)">
    <g id="Rectángulo_232" data-name="Rectángulo 232" transform="translate(238 1343)" fill="none" stroke="#fff" stroke-width="10" opacity="0.25">
      <rect width="170" height="170" rx="15" stroke="none"/>
      <rect x="-5" y="-5" width="180" height="180" rx="20" fill="none"/>
    </g>
    <path id="Trazado_46" data-name="Trazado 46" d="M-7406.516-1053.224c-6.611,0-13.484-2.1-20.429-6.232a80.141,80.141,0,0,1-16.683-13.711A123.523,123.523,0,0,1-7459-1093.112a123.7,123.7,0,0,1,15.373-19.944,80.147,80.147,0,0,1,16.683-13.711c6.944-4.135,13.817-6.232,20.429-6.232s13.485,2.1,20.43,6.232a80.127,80.127,0,0,1,16.682,13.711,123.61,123.61,0,0,1,15.372,19.944,123.735,123.735,0,0,1-15.372,19.944,80.12,80.12,0,0,1-16.682,13.711C-7393.031-1055.321-7399.9-1053.224-7406.516-1053.224Zm0-51.387a11.512,11.512,0,0,0-11.5,11.5,11.513,11.513,0,0,0,11.5,11.5,11.514,11.514,0,0,0,11.5-11.5A11.514,11.514,0,0,0-7406.516-1104.611Z" transform="translate(7730.016 2522.612)" fill="#4e4072"/>
    <path id="Trazado_47" data-name="Trazado 47" d="M-7432.5-1080a26.333,26.333,0,0,1-10.314-2.082,26.413,26.413,0,0,1-8.423-5.679,26.405,26.405,0,0,1-5.679-8.423A26.333,26.333,0,0,1-7459-1106.5a26.333,26.333,0,0,1,2.083-10.315,26.4,26.4,0,0,1,5.679-8.423,26.413,26.413,0,0,1,8.423-5.679A26.333,26.333,0,0,1-7432.5-1133a26.34,26.34,0,0,1,10.316,2.082,26.413,26.413,0,0,1,8.423,5.679,26.406,26.406,0,0,1,5.68,8.423A26.333,26.333,0,0,1-7406-1106.5a26.333,26.333,0,0,1-2.083,10.315,26.409,26.409,0,0,1-5.68,8.423,26.413,26.413,0,0,1-8.423,5.679A26.34,26.34,0,0,1-7432.5-1080Zm0-38a11.512,11.512,0,0,0-11.5,11.5,11.513,11.513,0,0,0,11.5,11.5,11.514,11.514,0,0,0,11.5-11.5A11.514,11.514,0,0,0-7432.5-1118Z" transform="translate(7756 2536)" fill="#fff"/>
  </g>
</svg>
