<!--desing by UpperCod-->
<svg xmlns="http://www.w3.org/2000/svg" width="160" height="56.264" viewBox="0 0 160 56.264"><g transform="translate(-311 -276)"><rect width="160" height="56.264" transform="translate(311 276)" fill="#fff" opacity="0"/><g transform="translate(316.456 305.901) rotate(-45)"><path d="M6.19,6.7a6.67,6.67,0,0,1-.9-.062L.975,2.325c.457.094.925.169,1.39.222L6.507,6.689C6.4,6.695,6.3,6.7,6.19,6.7Zm1.269-.122-3.94-3.94c.2.008.408.012.613.012.185,0,.373,0,.557-.01L8.378,6.326a6.629,6.629,0,0,1-.919.249Zm-3.6-.3A6.56,6.56,0,0,1,1.514,4.761,6.564,6.564,0,0,1,0,2.417L3.857,6.274Zm5.272-.263-3.44-3.44c.344-.034.69-.081,1.031-.138L9.868,5.582a6.584,6.584,0,0,1-.739.43Zm1.346-.888L7.609,2.257c.309-.071.621-.152.926-.242l2.534,2.534c-.064.071-.133.142-.2.212-.125.126-.258.247-.392.362Zm1.074-1.16h0l-2.21-2.21c.281-.1.564-.21.841-.328L12,3.247a6.6,6.6,0,0,1-.451.716ZM12.34,2.52h0L10.912,1.092c.258-.125.515-.26.767-.4l.941.941a6.615,6.615,0,0,1-.279.888Zm.433-1.8h0L12.349.3C12.5.2,12.653.1,12.8,0a6.673,6.673,0,0,1-.03.719Z" transform="translate(10.499 27.632)" fill="#fff"/><path d="M14.7,29.406a14.811,14.811,0,0,1-2.964-.3,14.623,14.623,0,0,1-5.257-2.212,14.747,14.747,0,0,1-5.327-6.468A14.626,14.626,0,0,1,.3,17.666a14.85,14.85,0,0,1,0-5.931A14.62,14.62,0,0,1,2.511,6.482,14.747,14.747,0,0,1,8.98,1.155,14.629,14.629,0,0,1,11.739.3a14.833,14.833,0,0,1,6.487.126,14.658,14.658,0,0,1,6.023,3.1,14.806,14.806,0,0,1,2.3,2.47,9.287,9.287,0,0,0,0,17.426,14.771,14.771,0,0,1-5.1,4.357A14.637,14.637,0,0,1,14.7,29.406Z" transform="translate(0 0)" fill="#fff"/><path d="M4.865,15.824h6.829a8.3,8.3,0,0,1-6.83,0ZM3.281,14.88a8.335,8.335,0,0,1-1.13-1.034H14.408a8.335,8.335,0,0,1-1.13,1.034ZM1.41,12.9a8.277,8.277,0,0,1-.594-1.034H15.742a8.267,8.267,0,0,1-.594,1.034ZM.431,10.924A8.21,8.21,0,0,1,.157,9.89H16.4a8.219,8.219,0,0,1-.275,1.034ZM.026,8.946Q0,8.616,0,8.279q0-.185.008-.367H16.55q.008.183.008.367,0,.337-.026.667ZM.1,6.968A8.229,8.229,0,0,1,.337,5.934H16.221a8.239,8.239,0,0,1,.234,1.034ZM.679,4.99a8.259,8.259,0,0,1,.537-1.034H15.34a8.267,8.267,0,0,1,.537,1.034ZM1.891,3.012A8.328,8.328,0,0,1,2.909,1.978H13.65a8.324,8.324,0,0,1,1.018,1.034ZM4.269,1.034a8.292,8.292,0,0,1,8.02,0Z" transform="translate(21.477 6.346)" fill="#fff"/></g><path d="M15.585-65.135h2.247L11.956-81.358H9.5L3.6-65.135H5.847l1.31-3.63h7.117ZM13.665-70.5h-5.9l2.949-8.24Zm7.21,1.849c0,2.575,1.289,3.511,3.558,3.511h1.92v-1.8H24.785c-1.31,0-1.779-.445-1.779-1.709v-7.561h3.348v-1.756H23.006v-3.23h-2.13v3.23H19.213v1.756h1.662ZM41.1-71.573a6.262,6.262,0,0,0-6.484-6.6,6.274,6.274,0,0,0-6.484,6.6c0,4.073,2.762,6.648,6.391,6.648A6.361,6.361,0,0,0,41.1-71.573Zm-10.792,0c0-3.23,2.037-4.752,4.284-4.752,2.2,0,4.331,1.522,4.331,4.752,0,3.254-2.177,4.775-4.4,4.775s-4.214-1.522-4.214-4.775Zm32.118,6.438h2.107V-72.7c0-3.675-2.271-5.5-5.2-5.5A4.749,4.749,0,0,0,54.8-75.341,4.827,4.827,0,0,0,50.09-78.2a4.638,4.638,0,0,0-4.05,2.083v-1.849H43.91v12.828h2.13V-72.2c0-2.762,1.475-4.143,3.63-4.143,2.107,0,3.511,1.334,3.511,3.956v7.257h2.107V-72.2c0-2.762,1.475-4.143,3.63-4.143,2.107,0,3.511,1.334,3.511,3.956Zm5.595,0h2.13V-77.963h-2.13Zm1.1-14.912a1.419,1.419,0,0,0,1.006-.432,1.419,1.419,0,0,0,.4-1.019,1.419,1.419,0,0,0-.4-1.019,1.419,1.419,0,0,0-1.006-.432,1.429,1.429,0,0,0-1.033.418,1.429,1.429,0,0,0-.418,1.033,1.429,1.429,0,0,0,.418,1.033A1.429,1.429,0,0,0,69.122-80.047Zm3.863,8.474c0,4.073,2.6,6.648,6.25,6.648a5.706,5.706,0,0,0,5.923-4.331H82.863a3.441,3.441,0,0,1-3.628,2.528c-2.341,0-4.073-1.662-4.073-4.846,0-3.137,1.732-4.8,4.073-4.8a3.5,3.5,0,0,1,3.628,2.528h2.294c-.656-2.692-2.739-4.331-5.923-4.331-3.652,0-6.25,2.575-6.25,6.6Zm27.178,0a6.262,6.262,0,0,0-6.484-6.6,6.274,6.274,0,0,0-6.484,6.6c0,4.073,2.763,6.648,6.391,6.648A6.36,6.36,0,0,0,100.163-71.573Zm-10.792,0c0-3.23,2.037-4.752,4.284-4.752,2.2,0,4.331,1.522,4.331,4.752,0,3.254-2.177,4.775-4.4,4.775S89.371-68.319,89.371-71.573Z" transform="translate(359.072 377.86)" fill="#fff"/></g></svg>